<svg id="svg" xmlns="http://www.w3.org/2000/svg" xmlns:xlink="http://www.w3.org/1999/xlink" width="400" height="400" viewBox="0, 0, 400,400"><g id="logo" fill="#144272"><path id="path0" d="M91.200 104.750 L 91.200 186.400 155.884 186.400 C 232.803 186.400,245.634 185.624,267.802 179.631 C 304.543 169.698,321.527 152.497,324.865 121.838 C 331.518 60.734,309.256 34.493,242.800 25.110 C 234.526 23.941,223.397 23.709,162.200 23.427 L 91.200 23.099 91.200 104.750 M210.515 64.040 C 242.003 67.233,255.200 79.271,255.200 104.800 C 255.200 136.773,237.951 146.400,180.661 146.400 L 160.000 146.400 160.000 104.800 L 160.000 63.200 181.115 63.200 C 192.729 63.200,205.959 63.578,210.515 64.040 M248.000 194.541 C 233.260 198.509,221.126 201.824,221.035 201.909 C 220.871 202.063,256.840 337.839,257.135 338.179 C 257.352 338.428,311.304 324.127,312.904 323.396 C 314.054 322.870,313.468 320.024,307.917 299.200 C 304.458 286.220,296.338 255.710,289.874 231.400 C 279.070 190.774,277.985 187.205,276.460 187.263 C 275.547 187.298,262.740 190.573,248.000 194.541 M92.796 198.600 C 92.794 198.710,90.287 230.283,87.225 268.763 C 84.164 307.242,81.736 338.793,81.829 338.876 C 82.257 339.254,139.995 343.471,140.318 343.148 C 140.933 342.533,151.816 203.634,151.291 203.101 C 150.568 202.367,92.810 197.922,92.796 198.600 M181.865 201.902 C 170.351 202.836,160.741 203.791,160.509 204.023 C 160.110 204.424,174.325 384.128,174.796 384.642 C 175.207 385.091,224.094 380.973,224.622 380.445 C 225.103 379.964,211.573 205.848,210.740 201.800 C 210.284 199.583,210.455 199.583,181.865 201.902 " stroke="none" fill-rule="evenodd"></path></g></svg>